<svg xmlns="http://www.w3.org/2000/svg" viewBox="0 0 117.88 79.93"><defs><style>.cls-1{fill:#1d1d1b;}.cls-2{fill:#e01f26;}</style></defs><g id="Camada_2" data-name="Camada 2"><g id="Camada_1-2" data-name="Camada 1"><path class="cls-1" d="M0,69.59a10.46,10.46,0,0,1,1.35-5.14,10.88,10.88,0,0,1,.68-1L46.64,7.52l2.64-3.31a10.87,10.87,0,0,1,1-1.08,10.35,10.35,0,0,1,17.32,7.66v58.8a10.36,10.36,0,0,1-17.32,7.65,12.14,12.14,0,0,1-.93-1l-.4-.5a10.26,10.26,0,0,1-2.05-6.18V40.34L18.66,75.75l-.4.52a9.59,9.59,0,0,1-.94,1A10.36,10.36,0,0,1,0,69.59Z"/><rect class="cls-1" x="72.94" width="44.93" height="20.21" rx="10.1"/><rect class="cls-2" x="72.94" y="30.08" width="33.75" height="20.21" rx="10.1"/></g></g></svg>